SplineFontDB: 2.0
FontName: Gregorio
FullName: Gregorio
FamilyName: Gregorio
Weight: Medium
Copyright: Created by Elie Roux in 2007, with FontForge 1.0 (http://fontforge.sf.net).\n\nThis font is under GPL licence.
Comments: 2007-4-12: Created.
Version: 001.000
ItalicAngle: 0
UnderlinePosition: -204
UnderlineWidth: 102
Ascent: 1638
Descent: 410
NeedsXUIDChange: 1
XUID: [1021 341 828717519 6438186]
OS2Version: 0
OS2_WeightWidthSlopeOnly: 0
OS2_UseTypoMetrics: 1
CreationTime: 1176402534
ModificationTime: 1182322575
OS2TypoAscent: 0
OS2TypoAOffset: 1
OS2TypoDescent: 0
OS2TypoDOffset: 1
OS2TypoLinegap: 0
OS2WinAscent: 0
OS2WinAOffset: 1
OS2WinDescent: 0
OS2WinDOffset: 1
HheadAscent: 0
HheadAOffset: 1
HheadDescent: 0
HheadDOffset: 1
OS2Vendor: 'PfEd'
Encoding: Custom
Compacted: 1
UnicodeInterp: none
NameList: Adobe Glyph List
DisplaySize: -96
AntiAlias: 1
FitToEm: 1
WinInfo: 0 12 7
TeXData: 1 0 0 346030 173015 115343 0 1048576 115343 783286 444596 497025 792723 393216 433062 380633 303038 157286 324010 404750 52429 2506097 1059062 262144
BeginChars: 1256 1182
StartChar: L
Encoding: 76 76 0
Width: 152
Flags: HW
TeX: 0 0 0 0
HStem: -409 15 -94 15 221 15 536 15
Fore
152.337 553.333 m 1
 152.337 586.678 122.5 613.998 75 612.998 c 1
 49 612.998 17 597.998 17 572.998 c 1
 17 510.498 124.5 530.998 120 561.998 c 1
 152.5 495.998 46 458 0 418.998 c 1
 67 439 152.337 497.678 152.337 553.333 c 1
EndSplineSet
EndChar
StartChar: B
Encoding: 66 66 1
Width: 164
Flags: HW
TeX: 0 0 0 0
HStem: -409 15 -94 15 221 15 536 15
Fore
82 166 m 28
 49.417 166 20 161 0 150 c 4
 0 150 0 32 0 -10 c 5
 15 0.65625 47 9 82 9 c 4
 118 9 149 0.958008 164 -10 c 4
 164 -10 164 87.5996 164 150 c 21
 144 158 114.583 166 82 166 c 28
EndSplineSet
EndChar
StartChar: C
Encoding: 67 67 2
Width: 164
Flags: HW
TeX: 0 0 0 0
HStem: -409 15 -94 15 221 15 536 15
Fore
77.5 225.5 m 5
 90.3333 211.667 148 139.5 164 120.5 c 5
 140 84.6667 110.5 38.5 89 0 c 5
 64.333 16.667 11 82.333 0 113.5 c 5
 6.66699 137.333 62.873 211.167 77.5 225.5 c 5
EndSplineSet
EndChar
StartChar: D
Encoding: 68 68 3
Width: 164
Flags: HW
TeX: 0 0 0 0
HStem: -409 15 -94 15 221 15 536 15
Fore
58.5 219.5 m 1
 110.666 179.333 152.283 137.33 164 117.996 c 1
 154.5 68.9961 111 25.666 96.0059 8.66992 c 1
 92.5059 4.66992 73 -11.5 84 12 c 1
 90.6667 33.3333 77.334 46.002 67.333 57.334 c 0
 55.8369 70.3594 26.666 96.6689 0 112.667 c 1
 5.66699 124.501 51.333 202.333 58.5 219.5 c 1
EndSplineSet
EndChar
StartChar: E
Encoding: 69 69 4
Width: 164
Flags: HW
TeX: 0 0 0 0
HStem: -409 15 -94 15 221 15 536 15
Fore
0.155273 154.667 m 1
 0.00488281 -7.98828 l 1
 2 -22.6667 2.66667 -52.6667 22.0029 -56.001 c 1
 52.6667 -47.3333 39.6709 12.332 57 24 c 1
 73.6709 10.666 58.6667 -30 86.0068 -34.001 c 1
 114 -30 100.995 32.9961 117.003 40.999 c 1
 134.667 34 120.332 -1.00781 144.336 -5.66699 c 1
 165.667 -1 164 17.6667 164.004 35.333 c 1
 164.156 160.669 l 1
 160.667 156.667 157.333 152 146.667 148 c 1
 129.656 153 136.667 204 117.161 203.669 c 1
 98 204 101.333 122.667 87.1562 114.5 c 1
 75.3333 120 78 183.333 57.165 183.335 c 1
 34.6667 183.333 36.6667 100 22.1562 90.5 c 1
 10.6667 100 15.8232 146.667 0.155273 154.667 c 1
EndSplineSet
EndChar
StartChar: F
Encoding: 70 70 5
Width: 164
Flags: HW
TeX: 0 0 0 0
HStem: -409 15 -94 15 221 15 536 15
Fore
0 191 m 17
 5.59004 172.99 2.76983 161.341 4.5 146.25 c 1
 13.1685 126.102 29 126 45.5 128.75 c 1
 65.0611 133.274 80.75 159.75 112.25 160 c 1
 133.353 159.548 152 144 164 129.75 c 9
 163.915 -44.4199 l 17
 159.59 -31.7529 161.219 -18.3369 158.665 -5.66992 c 1
 152.665 7.08008 134.579 21.5244 111.665 23.3301 c 1
 79.2109 21.2725 74.165 -3.66992 45.915 -9.16992 c 1
 23.915 -12.9199 -3.30859 2.11035 0.165039 19.3301 c 9
 0 191 l 17
EndSplineSet
EndChar
StartChar: G
Encoding: 71 71 6
Width: 164
Flags: HW
TeX: 0 0 0 0
HStem: -409 15 -94 15 221 15 536 15
Fore
164 191 m 17
 158.41 172.99 161.23 161.341 159.5 146.25 c 1
 150.831 126.103 135 126 118.5 128.75 c 1
 98.9385 133.274 83.25 159.75 51.75 160 c 1
 30.6465 159.548 12 144 0 129.75 c 9
 0.000976562 -41.5771 l 17
 4.32617 -28.9102 2.69727 -15.4941 5.25098 -2.82715 c 1
 11.251 9.92285 29.3369 24.3672 52.251 26.1729 c 1
 84.7041 24.1152 89.751 -0.827148 118.001 -6.32715 c 1
 140.001 -10.0771 167.225 4.95312 163.751 22.1729 c 9
 164 191 l 17
EndSplineSet
EndChar
StartChar: H
Encoding: 72 72 7
Width: 164
Flags: HW
TeX: 0 0 0 0
HStem: -409 15 -94 15 221 15 536 15
Fore
0 371 m 9
 0 1 l 17
 33 -39 101 -55 164 -63 c 9
 164 109.667 l 17
 164 130.333 108.253 173.332 32 169 c 9
 31.5 94 l 17
 87.9014 93.7178 108.845 73.7666 129 54 c 1
 143.333 26.6667 142 20 142.5 -6 c 5
 85.5 0 46.7373 15.5322 22 52 c 9
 22.5 389.5 l 17
 15 389.5 10.5 385.5 0 371 c 9
EndSplineSet
EndChar
StartChar: K
Encoding: 75 75 10
Width: 19
Flags: HW
TeX: 0 0 0 0
HStem: -409 15 -94 15 221 15 536 15
Fore
0 550.999 m 25
 19 551 l 25
 18.9912 -408.997 l 25
 -0.00292969 -409.002 l 25
 0 550.999 l 25
EndSplineSet
EndChar
StartChar: M
Encoding: 77 77 11
Width: 140
Flags: HW
TeX: 0 0 0 0
HStem: -409 15 -94 15 221 15 536 15
Fore
0 380.5 m 9
 0 74.5 l 17
 0 51.167 25 12.5 63.333 10.6699 c 0
 105.336 8.66463 140 19.667 140 27.9941 c 9
 140 27.9941 141.667 167.667 138.334 173 c 1
 98.334 163.657 63.374 168.845 55.667 170.665 c 0
 22.499 178.502 22 224.161 22 224.161 c 10
 22 236.667 l 18
 23 236.667 18.8457 279.427 55.333 289.834 c 0
 62.333 291.831 99.334 294.679 138.334 286.333 c 1
 141.667 296.667 140 378.667 140 424.5 c 1
 131.333 431.333 101.415 447.478 60 440 c 0
 24 433.5 0 400.667 0 380.5 c 9
EndSplineSet
EndChar
StartChar: N
Encoding: 78 78 12
Width: 164
Flags: HW
TeX: 0 0 0 0
HStem: -409 15 -94 15 221 15 536 15
Fore
141.996 -26.668 m 1
 142 -4 112.667 8.66667 82.001 9.33301 c 1
 47.001 9.33301 15 0.65625 0 -10 c 1
 0 32 0 150 0 150 c 0
 20 161 49.417 166 82 166 c 24
 114.583 166 144 158 164 150 c 9
 164 87.5996 164 -10 164 -10 c 0
 164 -17.3333 164 -217.334 164 -220.668 c 1
 145.333 -220.667 141.996 -212.293 141.996 -212.293 c 25
 141.996 -26.668 l 1
EndSplineSet
EndChar
StartChar: O
Encoding: 79 79 13
Width: 164
Flags: W
TeX: 0 0 0 0
HStem: -409 15 -94 15 221 15 536 15
Fore
22.0039 -26.668 m 1
 22 -4 51.333 8.66699 81.999 9.33301 c 1
 116.999 9.33301 149 0.65625 164 -10 c 1
 164 32 164 150 164 150 c 0
 144 161 114.583 166 82 166 c 24
 49.417 166 20 158 0 150 c 9
 0 87.5996 0 -10 0 -10 c 0
 0 -17.333 0 -217.334 0 -220.668 c 1
 18.667 -220.667 22.0039 -212.293 22.0039 -212.293 c 25
 22.0039 -26.668 l 1
EndSplineSet
EndChar
StartChar: I
Encoding: 80 73 14
AltUni: 80
Width: 19
Flags: HW
TeX: 0 0 0 0
HStem: -409 15 -94 15 221 15 536 15
Fore
0 359.128 m 9
 0.00292969 719.984 l 25
 18.999 720.021 l 25
 19 352.431 l 17
 6.04348 352.565 2.43478 355.609 0 359.128 c 9
EndSplineSet
EndChar
StartChar: Q
Encoding: 81 81 15
Width: 19
Flags: HW
TeX: 0 0 0 0
Fore
0 -296.375 m 9
 0 383.125 l 17
 3.87305 385.802 10.75 386.375 19 386.5 c 9
 19 -293.375 l 17
 14.875 -293.5 5 -293.375 0 -296.375 c 9
EndSplineSet
EndChar
StartChar: S
Encoding: 83 83 16
Width: 164
Flags: HW
TeX: 0 0 0 0
HStem: -409 15 -94 15 221 15 536 15
Fore
22.0039 -26.668 m 1
 22 -4 51.333 8.66699 81.999 9.33301 c 1
 116.999 9.33301 149 0.65625 164 -10 c 1
 164 32 164 150 164 150 c 0
 144 161 114.583 166 82 166 c 24
 49.417 166 20 158 0 150 c 9
 0 87.5996 0 -10 0 -10 c 0
 0 -17.333 0 -361.666 0 -365 c 1
 18.667 -364.999 22.0049 -356.286 22.0049 -356.286 c 29
 22.0039 -26.668 l 1
EndSplineSet
EndChar
StartChar: pesdebilis
Encoding: 84 84 17
Width: 164
Flags: HW
TeX: 0 0 0 0
HStem: -409 15 -94 15 221 15 536 15
Fore
0 23.998 m 1
 0 190.676 l 17
 3.33333 176.667 23 157.333 31.1973 151.947 c 0
 50.8243 139.051 81.1973 137.995 100 138 c 0
 115.207 138.004 129.871 140.985 142 144.375 c 1
 142 176.727 142.004 156.001 142 176.672 c 1
 164 176.672 141.999 176.673 163.999 176.673 c 1
 163.999 -5.19922 l 1
 141.999 -12.3994 109.546 -13.4287 95.6699 -12.001 c 0
 78.6667 -11.3333 43.333 -6.66602 28.667 0 c 0
 22.418 2.83984 3.33301 14.666 0 23.998 c 1
EndSplineSet
EndChar
StartChar: auctusd1
Encoding: 85 85 18
Width: 164
Flags: W
TeX: 0 0 0 0
HStem: -409 15 -94 15 221 15 536 15
Fore
0 160.67 m 1
 22.001 160.664 l 0
 22 152.75 22 160.688 21.999 152.666 c 1
 33.0977 155.382 58.8479 159.316 79.25 158 c 1
 100.746 156.818 123.293 142.362 140 124.791 c 0
 151.56 112.633 160.323 71.7822 164.007 60.0078 c 9
 164 -96 l 1
 159.353 -83.1748 147.147 -39.1311 132 -24.5741 c 0
 114.552 -7.80614 94.2002 1.92969 76 3 c 0
 41.0605 5.05566 14.9932 0.648438 -0.00683594 -10.0078 c 1
 0 160.67 l 1
EndSplineSet
EndChar
StartChar: auctusa1
Encoding: 86 86 19
Width: 164
Flags: W
TeX: 0 0 0 0
HStem: -409 15 -94 15 221 15 536 15
Fore
0 -10 m 1
 0 161.5 l 1
 0 161.5 0 161.5 22 161.5 c 1
 22 146.062 22 159.5 22 144 c 1
 33.5 139.5 46 137 64 138 c 0
 82.7738 139.043 117.585 160.223 133 177 c 0
 143.667 188.61 159 232 164 251 c 9
 164 79 l 1
 160.674 59.6748 149.336 34.3379 141 24 c 0
 127.283 6.99023 84.9521 -10.4482 64 -12 c 0
 50.0889 -13.0303 12 -14 0 -10 c 1
EndSplineSet
EndChar
StartChar: X
Encoding: 88 88 20
Width: 201
Flags: HW
TeX: 0 0 0 0
HStem: -409 15 -94 15 221 15 536 15
Fore
0 382 m 9
 0 -53 l 17
 51 -47 116 -45 170 0 c 1
 170 13 169 19 169 59 c 1
 111 12 70 12 22 5 c 9
 22 79 l 17
 68 113 106.103 115.761 179 126 c 9
 179 -244 l 17
 186.675 -242.17 195.761 -243.79 201 -236 c 9
 201 185 l 17
 117 177 81 177 22 140 c 9
 22 393 l 17
 14.6667 390.185 7.33334 390.885 0 382 c 9
EndSplineSet
EndChar
StartChar: Y
Encoding: 89 89 22
Width: 321
Flags: HW
TeX: 0 0 0 0
HStem: -409 15 -94 15 221 15 536 15
Fore
129.995 131.999 m 1
 129.999 154.667 114.666 168.334 84 169 c 1
 49 169 15 165.5 0 155 c 1
 0 312 l 1
 21 324 56.4727 327.644 93 325 c 24
 117.775 323.207 135.499 320.499 151.999 300.999 c 9
 151.999 238.599 151.999 140.999 151.999 140.999 c 0
 151.999 133.666 152 -54.666 152 -58 c 1
 133.333 -57.999 129.995 -53.626 129.995 -53.626 c 25
 129.995 131.999 l 1
181 389.006 m 9
 181 52.5059 l 17
 181 29.1729 209 6.21973 244.333 5.17578 c 0
 269.289 4.4375 321 14.1729 321 22.5 c 9
 321 22.5 322.667 162.173 319.334 167.506 c 1
 279.334 158.163 244.374 163.351 236.667 165.171 c 0
 203.499 173.008 203 218.667 203 218.667 c 10
 203 231.173 l 18
 204 231.173 199.846 273.933 236.333 284.34 c 0
 243.333 286.337 280.334 289.185 319.334 280.839 c 1
 322.667 291.173 321 373.173 321 419.006 c 1
 312.333 425.839 283 437.173 241 434.506 c 0
 215.718 432.9 181 409.173 181 389.006 c 9
EndSplineSet
EndChar
StartChar: Z
Encoding: 90 90 23
Width: 85
Flags: HW
TeX: 0 0 0 0
HStem: -409 15 -94 15 221 15 536 15
Fore
63 -27 m 5
 63 311.5 l 5
 59 322 25 291 3 281 c 5
 0 291 0.279297 431 0 441 c 5
 -0.329055 459.575 78 504 85 487.5 c 5
 85 -15 l 6
 85 -20 63 -27 63 -27 c 5
EndSplineSet
EndChar
StartChar: backslash
Encoding: 92 92 24
Width: 85
Flags: HW
TeX: 0 0 0 0
HStem: 854.5 15 539.5 15 224.5 15 -90.5 15
Fore
63 799.5 m 5
 63 461 l 5
 59 450.5 25 481.5 3 491.5 c 5
 0 481.5 0.279297 341.5 0 331.5 c 5
 -0.329102 312.925 78 268.5 85 285 c 5
 85 787.5 l 6
 85 792.5 63 799.5 63 799.5 c 5
EndSplineSet
EndChar
StartChar: bracketleft
Encoding: 91 91 25
Width: 85
Flags: HW
TeX: 0 0 0 0
HStem: -409 15 -94 15 221 15 536 15
Fore
63 82 m 5
 63 305.5 l 5
 59 316 25 285 3 275 c 5
 0 285 0.279297 425 0 435 c 5
 -0.329102 453.575 78 498 85 481.5 c 5
 85 94 l 6
 84.9746 85.0146 63 82 63 82 c 5
EndSplineSet
EndChar
StartChar: bracketright
Encoding: 93 93 26
Width: 85
Flags: HW
TeX: 0 0 0 0
HStem: 957.5 15 642.5 15 327.5 15 12.5 15
Fore
63 781.5 m 5
 63 558 l 5
 59 547.5 25 578.5 3 588.5 c 5
 0 578.5 0.279297 438.5 0 428.5 c 5
 -0.329102 409.925 78 365.5 85 382 c 5
 85 769.5 l 6
 84.9746 778.485 63 781.5 63 781.5 c 5
EndSplineSet
EndChar
StartChar: base2
Encoding: 94 94 27
Width: 164
Flags: HW
TeX: 0 0 0 0
HStem: -409 15 -94 15 221 15 536 15
Fore
164 -21.5 m 29
 155.42 -21.5 142 -21.5 142 -21.5 c 4
 137.5 -9.5 112 5.5 76 5.5 c 4
 46.5 5.5 15 0.65625 0 -10 c 5
 0 146 l 5
 20 157 49.417 162 82 162 c 28
 114.583 162 144 154 164 146 c 13
 164 -21.5 l 29
EndSplineSet
EndChar
StartChar: base4
Encoding: 95 95 28
Width: 164
Flags: HW
TeX: 0 0 0 0
HStem: -409 15 -94 15 221 15 536 15
Fore
0 -21.5 m 29
 0 146 l 21
 20 154 49.417 162 82 162 c 28
 114.583 162 144 157 164 146 c 5
 164 -10 l 5
 149 0.65625 117.5 5.5 88 5.5 c 4
 52 5.5 26.5 -9.5 22 -21.5 c 4
 22 -21.5 8.58008 -21.5 0 -21.5 c 29
EndSplineSet
EndChar
StartChar: base7
Encoding: 96 96 29
Width: 164
Flags: HW
TeX: 0 0 0 0
HStem: -409 15 -94 15 221 15 536 15
Fore
0.00683594 151.674 m 5
 22.0078 151.668 l 4
 29.6738 155.008 51.3398 162.008 82 162 c 4
 114.583 161.992 144 154 164 146 c 13
 163.993 -10.0078 l 5
 148.993 0.950195 117.993 8.99219 81.9932 8.99219 c 4
 46.9932 8.99219 14.9932 0.648438 -0.00683594 -10.0078 c 5
 0.00683594 151.674 l 5
EndSplineSet
EndChar
StartChar: base5
Encoding: 97 97 30
Width: 164
Flags: HW
TeX: 0 0 0 0
HStem: -409 15 -94 15 221 15 536 15
Fore
163.993 151.674 m 1
 163.993 -10.0078 l 1
 148.993 0.648438 116.993 8.99219 81.9932 8.99219 c 0
 45.9932 8.99219 14.9932 0.950195 -0.00683594 -10.0078 c 1
 0 146 l 21
 20 154 49.417 161.992 82 162 c 0
 112.66 162.008 134.326 155.008 141.992 151.668 c 0
 163.993 151.674 l 1
EndSplineSet
EndChar
StartChar: base3
Encoding: 98 98 31
Width: 164
Flags: HW
TeX: 0 0 0 0
HStem: -409 15 -94 15 221 15 536 15
Fore
164 146 m 9
 164 -21.5 l 25
 155.42 -21.5 142 -21.5 142 -21.5 c 4
 136.333 -11 118.002 5.66667 82.002 5.66602 c 0
 46.002 5.66536 26.4971 -9.5 21.9971 -21.5 c 0
 0 -21.5 l 25
 0 146 l 1
 20 157 49.417 162 82 162 c 24
 114.583 162 144 154 164 146 c 9
EndSplineSet
EndChar
StartChar: base6
Encoding: 99 99 32
Width: 164
Flags: HW
TeX: 0 0 0 0
HStem: -409 15 -94 15 221 15 536 15
Fore
141.992 151.668 m 0
 163.993 151.674 l 1
 163.993 -10.0078 l 1
 148.993 0.648438 116.993 8.99219 81.9932 8.99219 c 0
 45.9932 8.99219 14.9932 0.950195 -0.00683594 -10.0078 c 1
 0 151.7 l 1
 22.001 151.7 l 0
 29.667 155.04 51.333 162.084 81.9932 162.076 c 0
 114.576 162.068 134.326 155.008 141.992 151.668 c 0
EndSplineSet
EndChar
StartChar: line2
Encoding: 100 100 33
Width: 2048
Flags: HW
TeX: 0 0 0 0
HStem: -409 15 -94 15 221 15 536 15
Fore
0 -11.5 m 29
 0 146 l 29
 22 146 l 29
 22 -11.5 l 29
 0 -11.5 l 29
EndSplineSet
EndChar
StartChar: line3
Encoding: 101 101 34
Width: 2048
Flags: HW
TeX: 0 0 0 0
HStem: -420.5 15 -105.5 15 209.5 15 524.5 15
Fore
0 -11.5 m 25
 0 303.5 l 25
 22 303.5 l 25
 22 -11.5 l 25
 0 -11.5 l 25
EndSplineSet
EndChar
StartChar: line4
Encoding: 102 102 35
Width: 2048
Flags: HW
TeX: 0 0 0 0
HStem: -420.5 15 -105.5 15 209.5 15 524.5 15
Fore
0 -11.5 m 29
 0 453.5 l 29
 22 453.5 l 29
 22 -11.5 l 29
 0 -11.5 l 29
EndSplineSet
EndChar
StartChar: line5
Encoding: 103 103 36
Width: 2048
Flags: HW
TeX: 0 0 0 0
HStem: -420.5 15 -105.5 15 209.5 15 524.5 15
Fore
0 -11.5 m 29
 0 619.5 l 29
 22 619.5 l 29
 22 -11.5 l 29
 0 -11.5 l 29
EndSplineSet
EndChar
StartChar: vsbase
Encoding: 104 104 37
Width: 164
Flags: HW
TeX: 0 0 0 0
HStem: -409 15 -94 15 221 15 536 15
Fore
22.0039 -26.668 m 1
 22.0039 -212.293 l 25
 22.0039 -212.293 18.667 -220.667 0 -220.668 c 1
 0 -217.334 0 -17.333 0 -10 c 0
 0 -10 0 87.5996 0 150 c 17
 20 158 49.417 166 82 166 c 24
 114.583 166 144 161 164 150 c 0
 164 150 164 22 164 -20 c 1
 153.375 -19.875 164 -20 142 -20 c 1
 140.625 -12.125 132.583 -1.72852 127 0 c 1
 114 8 103.563 9.49736 81.999 9.33301 c 1
 51.333 8.66699 22 -4 22.0039 -26.668 c 1
EndSplineSet
EndChar
StartChar: porrectus4
Encoding: 125 -1 38
Width: 740
Flags: HW
TeX: 0 0 0 0
HStem: -409 15 -94 15 221 15 536 15
Fore
0 -16 m 1
 0 155 l 2
 0 159.739 5.27454 158.592 7 154.75 c 0
 134 -128 372 -552 718 -612 c 1
 718 -569 718 -555.875 718 -513 c 1
 728.125 -513 735.281 -512.9 740 -513 c 1
 740 -742 l 2
 740 -744.229 739.63 -744.063 737.76 -743.591 c 0
 272 -626 84 -266 0 -16 c 1
EndSplineSet
EndChar
StartChar: porrectus5
Encoding: 126 -1 39
Width: 931
Flags: HW
TeX: 0 0 0 0
HStem: -409 15 -94 15 221 15 536 15
Fore
0 -16 m 1
 0 155 l 2
 0 159.739 5.3553 158.627 7 154.75 c 0
 122.5 -117.5 382.5 -737.5 909 -857.5 c 5
 909 -814.5 909 -801.375 909 -758.5 c 1
 919.125 -758.5 926.281 -758.4 931 -758.5 c 1
 931 -987.5 l 2
 931 -989.729 930.646 -989.492 928.76 -989.091 c 0
 315 -858.5 70 -240 0 -16 c 1
EndSplineSet
EndChar
StartChar: torculusresupinus1
Encoding: 127 -1 40
Width: 340
Flags: HW
TeX: 0 0 0 0
HStem: -409 15 -94 15 221 15 536 15
Fore
0 -16 m 1
 0 155 l 2
 0 159.739 3.67916 157.34 7 154.75 c 0
 143.49 48.2977 204 0 318 -3.875 c 5
 318 39.125 318 -3.875 318 39 c 5
 328.125 39 335.281 39.0996 340 39 c 5
 340 -141 l 6
 340 -143.229 339.69 -142.65 337.76 -142.591 c 4
 187.5 -138 136.5 -110 0 -16 c 1
EndSplineSet
EndChar
StartChar: torculusresupinus2
Encoding: 128 -1 41
Width: 428
Flags: HW
TeX: 0 0 0 0
HStem: -409 15 -94 15 221 15 536 15
Fore
0 -16 m 1
 0 155 l 2
 0 159.739 3.67916 157.34 7 154.75 c 0
 143.49 48.2977 292 -6 406 -9.875 c 5
 406 33.125 406 -9.875 406 33 c 5
 416.125 33 423.281 33.0996 428 33 c 5
 428 -147 l 6
 428 -149.229 427.689 -148.649 425.76 -148.591 c 4
 275.5 -144 136.5 -110 0 -16 c 1
EndSplineSet
EndChar
StartChar: vbase
Encoding: 105 -1 42
Width: 164
Flags: HW
TeX: 0 0 0 0
HStem: -409 15 -94 15 221 15 536 15
Fore
141.996 -26.668 m 1
 142 -4 112.667 8.66699 82.001 9.33301 c 1
 60.4375 9.49707 50 8 37 0 c 1
 31.417 -1.72852 23.375 -12.125 22 -20 c 1
 0 -20 10.625 -19.875 0 -20 c 1
 0 22 0 150 0 150 c 0
 20 161 49.417 166 82 166 c 24
 114.583 166 144 158 164 150 c 9
 164 87.5996 164 -10 164 -10 c 0
 164 -17.333 164 -217.334 164 -220.668 c 1
 145.333 -220.667 141.996 -212.293 141.996 -212.293 c 25
 141.996 -26.668 l 1
EndSplineSet
EndChar
StartChar: vlbase
Encoding: 106 -1 43
Width: 164
Flags: HW
TeX: 0 0 0 0
HStem: -409 15 -94 15 221 15 536 15
Fore
22.0039 -26.668 m 1
 21.998 -356.617 l 29
 21.998 -356.617 18.6611 -364.991 -0.00585938 -364.992 c 5
 -0.00585938 -361.658 0 -17.333 0 -10 c 0
 0 -10 0 87.5996 0 150 c 17
 20 158 49.417 166 82 166 c 24
 114.583 166 144 161 164 150 c 0
 164 150 164 22 164 -20 c 1
 153.375 -19.875 164 -20 142 -20 c 1
 140.625 -12.125 132.583 -1.72852 127 0 c 1
 114 8 103.563 9.49736 81.999 9.33301 c 1
 51.333 8.66699 22 -4 22.0039 -26.668 c 1
EndSplineSet
EndChar
StartChar: qbase
Encoding: 107 -1 44
Width: 164
Flags: HW
TeX: 0 0 0 0
HStem: -409 15 -94 15 221 15 536 15
Fore
141.845 157.333 m 1
 163.845 157.333 l 1
 164.004 29.833 l 1
 164 12.167 165.667 -6.5 144.336 -11.167 c 1
 120.332 -6.50781 130.664 28.501 113 35.5 c 1
 96.9922 27.4971 110.993 -35.499 83 -39.5 c 1
 55.6602 -35.499 69.6709 5.66602 53 19 c 1
 35.6709 7.33203 52.667 -52.833 22.0029 -61.501 c 1
 2.66699 -58.167 2 -28.167 0.00488281 -13.4883 c 1
 0 140.5 l 1
 15.668 132.5 10.5117 85.833 22.001 76.333 c 1
 36.5117 85.833 27.3467 162.831 49.8447 162.833 c 1
 70.6797 162.831 66.5215 105.833 78.3447 100.333 c 1
 92.5215 108.5 86.1836 179.664 105.345 179.333 c 1
 124.851 179.664 114.334 129.333 131.345 124.333 c 1
 136.845 125.333 141.845 145.833 141.845 157.333 c 1
EndSplineSet
EndChar
StartChar: obase
Encoding: 108 -1 45
Width: 164
Flags: HW
TeX: 0 0 0 0
HStem: -409 15 -94 15 221 15 536 15
Fore
164 157.331 m 9
 164 22.1729 l 17
 164 4.5 140.001 -10.0771 118.001 -6.32715 c 1
 89.751 -0.827148 84.7041 24.1152 52.251 26.1729 c 1
 29.3369 24.3672 11.251 9.92383 5.25098 -2.82617 c 1
 2.69727 -15.4932 4.3252 -13.9941 0 -26.6611 c 9
 0 129.75 l 17
 12 144 30.6465 159.548 51.75 160 c 1
 83.25 159.75 98.9385 133.274 118.5 128.75 c 1
 135 126 139.333 134.667 141.992 141.999 c 1
 142 149.455 142 149.333 141.998 157.333 c 5
 151.333 157.5 147.333 157.333 164 157.331 c 9
EndSplineSet
EndChar
StartChar: pbase
Encoding: 109 -1 122
Width: 164
Flags: HW
TeX: 0 0 0 0
HStem: -409 15 -94 15 221 15 536 15
Fore
163.993 151.674 m 1
 163.993 -10.0078 l 1
 149 -5.5 116.5 -3 81.5 -3 c 0
 45.5 -3 12.5 -4.5 -0.00683594 -10.0078 c 1
 0 146 l 17
 11.5 148.5 50.417 155.492 83 155.5 c 0
 113.66 155.508 134 153 141.992 151.668 c 0
 163.993 151.674 l 1
EndSplineSet
EndChar
StartChar: idebilis
Encoding: 110 -1 123
Width: 110
Flags: HW
TeX: 0 0 0 0
HStem: -409 15 -94 15 221 15 536 15
Fore
110 147 m 1
 110 16 l 5
 100 24.3333 82.6665 27.9905 55.667 28.335 c 0
 29.6667 28.6667 7 24 0 16 c 1
 0 119 l 17
 10 124 30.6667 127 54.0039 127 c 0
 69.3333 127 85.667 125.337 88 124 c 0
 88.002 146.994 l 1
 110 147 l 1
EndSplineSet
EndChar
StartChar: deminutus
Encoding: 111 -1 124
Width: 110
Flags: HW
TeX: 0 0 0 0
HStem: -409 15 -94 15 221 15 536 15
Fore
110 147 m 1
 110 16 l 1
 104.5 11.5 89 6 69 5 c 0
 43.0303 3.70117 14.5 7 0 16 c 1
 0 119 l 17
 23 111 47.5 109 63 109.5 c 0
 72.4951 109.807 86.5 119 88 124 c 0
 88.002 146.994 l 1
 110 147 l 1
EndSplineSet
EndChar
StartChar: rdeminutus
Encoding: 112 -1 125
Width: 110
Flags: HW
TeX: 0 0 0 0
HStem: 545.728 15 230.728 15 -84.2722 15 -399.272 15
Fore
110 -21 m 5
 88.002 -20.9941 l 5
 88 27.7275 l 0
 86.5 32.7275 72.4951 41.9209 63 42.2275 c 0
 47.5 42.7275 23 40.7275 0 32.7275 c 9
 0 135.728 l 1
 14.5 144.728 43.0303 148.026 69 146.728 c 0
 89 145.728 104.5 140.228 110 135.728 c 1
 110 -21 l 5
EndSplineSet
EndChar
StartChar: auctusd2
Encoding: 113 -1 126
Width: 164
Flags: W
TeX: 0 0 0 0
HStem: -409 15 -94 15 221 15 536 15
Fore
0 146.001 m 1
 17.2 154.4 55.9994 159.987 79.25 158 c 1
 100.746 156.818 123.293 142.362 140 124.791 c 0
 151.56 112.633 160.323 71.7822 164.007 60.0078 c 9
 164 -96 l 1
 159.353 -83.1748 147.147 -39.1311 132 -24.5741 c 0
 114.552 -7.80614 94.2002 1.92969 76 3 c 0
 53.6419 4.31543 36.5176 2.72168 22 -1.2002 c 1
 22 -18.0909 22 -1.27273 22.0078 -18.0049 c 1
 0 -18 22 -18 0 -18.0059 c 1
 0 146.001 l 1
EndSplineSet
EndChar
StartChar: auctusa2
Encoding: 114 -1 127
Width: 164
Flags: W
TeX: 0 0 0 0
HStem: -409 15 -94 15 221 15 536 15
Fore
0.00683594 151.674 m 1
 0.00683594 151.674 33.3398 138.008 64 138 c 0
 82.8027 137.995 117.585 160.223 133 177 c 0
 143.667 188.61 159 232 164 251 c 9
 164 79 l 1
 160.674 59.6748 149.336 34.3379 141 24 c 0
 127.283 6.99023 84.9521 -10.4482 64 -12 c 0
 50.0889 -13.0303 33.999 -10.8184 21.999 -6.81836 c 1
 22.0215 -19.1533 22 -11.1667 22 -23 c 1
 3.33333 -23 21.8333 -23 0 -22.9932 c 1
 0.00683594 151.674 l 1
EndSplineSet
EndChar
StartChar: porrectus1
Encoding: 115 -1 128
Width: 490
Flags: HW
TeX: 0 0 0 0
HStem: -409 15 -94 15 221 15 536 15
Fore
0 -16 m 1
 0 155 l 2
 0 159.739 3.67916 157.34 7 154.75 c 0
 143.49 48.2977 249.871 -47.1758 468 -58.875 c 1
 468 -15.875 468 -58.875 468 -16 c 1
 478.125 -16 485.281 -15.9004 490 -16 c 1
 490 -196 l 2
 490 -198.229 489.69 -197.612 487.76 -197.591 c 0
 254 -195 136.5 -110 0 -16 c 1
EndSplineSet
EndChar
StartChar: porrectus2
Encoding: 116 -1 129
Width: 575
Flags: HW
TeX: 0 0 0 0
HStem: -409 15 -94 15 221 15 536 15
Fore
0 -16 m 1
 0 155 l 2
 0 159.739 4.29244 157.976 7 154.75 c 0
 186 -58.5 417 -162 553 -204.875 c 1
 553 -161.875 553 -159.875 553 -117 c 1
 563.125 -117 570.281 -116.9 575 -117 c 1
 575 -342 l 2
 575 -344.229 574.647 -343.994 572.76 -343.591 c 0
 390 -304.5 160.5 -196.5 0 -16 c 1
EndSplineSet
EndChar
StartChar: porrectus3
Encoding: 117 -1 130
Width: 650
Flags: HW
TeX: 0 0 0 0
HStem: -409 15 -94 15 221 15 536 15
Fore
0 -16 m 1
 0 155 l 2
 0 159.739 4.44434 158.098 7 154.75 c 0
 174 -64 358 -278 628 -320.875 c 1
 628 -277.875 628 -271.875 628 -229 c 1
 638.125 -229 645.281 -228.9 650 -229 c 1
 650 -458 l 2
 650 -460.229 649.67 -459.865 647.76 -459.591 c 0
 358 -418 154 -204 0 -16 c 1
EndSplineSet
EndChar
